<svg width="928" height="694" viewBox="0 0 928 694" fill="none" xmlns="http://www.w3.org/2000/svg">
<rect width="928" height="694" fill="#364153"/>
<path fill-rule="evenodd" clip-rule="evenodd" d="M298.613 299.113V347.16L332.025 322.225L298.613 299.113Z" fill="#FFCC00"/>
<path fill-rule="evenodd" clip-rule="evenodd" d="M337.471 401.192V333.694L298.607 362.693V401.192H337.471Z" fill="#FF2D55"/>
<path fill-rule="evenodd" clip-rule="evenodd" d="M239.864 401.124V364.54L201 401.124H239.864Z" fill="#FF2D55"/>
<path fill-rule="evenodd" clip-rule="evenodd" d="M267.127 321.799L271.284 326.001L288.66 343.536V291.92L269.228 278L249.796 291.92V337.526L262.756 325.769L267.127 321.799Z" fill="#FFD739"/>
<path fill-rule="evenodd" clip-rule="evenodd" d="M288.431 361.818L266.44 339.618L249.567 354.928V401.492H288.431V361.818Z" fill="#FF5E7C"/>
<path fill-rule="evenodd" clip-rule="evenodd" d="M239.864 299.045L201 326.884V381.884L239.864 346.598V299.045Z" fill="#FFCC00"/>
<path d="M428.85 420.818V439H425.121L417.886 428.506H417.771V439H413.376V420.818H417.158L424.314 431.294H424.464V420.818H428.85ZM437.979 439.257C436.546 439.257 435.315 438.964 434.286 438.379C433.262 437.787 432.472 436.964 431.915 435.911C431.365 434.851 431.09 433.623 431.09 432.226C431.09 430.824 431.365 429.595 431.915 428.542C432.472 427.482 433.262 426.66 434.286 426.074C435.315 425.482 436.546 425.186 437.979 425.186C439.411 425.186 440.639 425.482 441.663 426.074C442.693 426.66 443.483 427.482 444.033 428.542C444.59 429.595 444.868 430.824 444.868 432.226C444.868 433.623 444.59 434.851 444.033 435.911C443.483 436.964 442.693 437.787 441.663 438.379C440.639 438.964 439.411 439.257 437.979 439.257ZM438.005 435.982C438.526 435.982 438.967 435.822 439.328 435.502C439.689 435.183 439.964 434.739 440.154 434.17C440.349 433.602 440.447 432.945 440.447 432.2C440.447 431.442 440.349 430.779 440.154 430.211C439.964 429.643 439.689 429.199 439.328 428.879C438.967 428.56 438.526 428.4 438.005 428.4C437.467 428.4 437.011 428.56 436.638 428.879C436.271 429.199 435.99 429.643 435.795 430.211C435.605 430.779 435.511 431.442 435.511 432.2C435.511 432.945 435.605 433.602 435.795 434.17C435.99 434.739 436.271 435.183 436.638 435.502C437.011 435.822 437.467 435.982 438.005 435.982ZM452.463 444.114V425.364H456.76V427.699H456.893C457.071 427.284 457.322 426.885 457.648 426.5C457.979 426.115 458.399 425.802 458.908 425.559C459.423 425.31 460.039 425.186 460.755 425.186C461.702 425.186 462.587 425.435 463.409 425.932C464.238 426.429 464.907 427.195 465.416 428.231C465.925 429.267 466.179 430.587 466.179 432.191C466.179 433.735 465.934 435.029 465.442 436.07C464.957 437.112 464.3 437.893 463.472 438.414C462.649 438.935 461.734 439.195 460.728 439.195C460.042 439.195 459.447 439.083 458.944 438.858C458.441 438.633 458.018 438.337 457.674 437.97C457.337 437.603 457.076 437.21 456.893 436.789H456.804V444.114H452.463ZM456.715 432.182C456.715 432.916 456.813 433.555 457.008 434.099C457.21 434.644 457.497 435.067 457.87 435.369C458.248 435.665 458.701 435.813 459.228 435.813C459.761 435.813 460.213 435.665 460.586 435.369C460.959 435.067 461.24 434.644 461.43 434.099C461.625 433.555 461.723 432.916 461.723 432.182C461.723 431.448 461.625 430.812 461.43 430.273C461.24 429.734 460.959 429.317 460.586 429.021C460.219 428.725 459.766 428.577 459.228 428.577C458.695 428.577 458.242 428.722 457.87 429.012C457.497 429.302 457.21 429.717 457.008 430.255C456.813 430.794 456.715 431.436 456.715 432.182ZM474.82 439.257C473.387 439.257 472.156 438.964 471.126 438.379C470.103 437.787 469.312 436.964 468.756 435.911C468.206 434.851 467.93 433.623 467.93 432.226C467.93 430.824 468.206 429.595 468.756 428.542C469.312 427.482 470.103 426.66 471.126 426.074C472.156 425.482 473.387 425.186 474.82 425.186C476.252 425.186 477.48 425.482 478.504 426.074C479.534 426.66 480.324 427.482 480.874 428.542C481.431 429.595 481.709 430.824 481.709 432.226C481.709 433.623 481.431 434.851 480.874 435.911C480.324 436.964 479.534 437.787 478.504 438.379C477.48 438.964 476.252 439.257 474.82 439.257ZM474.846 435.982C475.367 435.982 475.808 435.822 476.169 435.502C476.53 435.183 476.805 434.739 476.995 434.17C477.19 433.602 477.288 432.945 477.288 432.2C477.288 431.442 477.19 430.779 476.995 430.211C476.805 429.643 476.53 429.199 476.169 428.879C475.808 428.56 475.367 428.4 474.846 428.4C474.308 428.4 473.852 428.56 473.479 428.879C473.112 429.199 472.831 429.643 472.636 430.211C472.446 430.779 472.352 431.442 472.352 432.2C472.352 432.945 472.446 433.602 472.636 434.17C472.831 434.739 473.112 435.183 473.479 435.502C473.852 435.822 474.308 435.982 474.846 435.982ZM495.838 429.527L491.852 429.634C491.81 429.35 491.698 429.098 491.514 428.879C491.331 428.654 491.091 428.48 490.795 428.355C490.505 428.225 490.168 428.16 489.783 428.16C489.28 428.16 488.851 428.261 488.496 428.462C488.147 428.663 487.975 428.935 487.981 429.279C487.975 429.545 488.082 429.776 488.301 429.971C488.526 430.167 488.925 430.323 489.499 430.442L492.127 430.939C493.488 431.199 494.5 431.631 495.163 432.235C495.832 432.839 496.169 433.638 496.175 434.632C496.169 435.567 495.891 436.381 495.341 437.074C494.796 437.766 494.05 438.305 493.104 438.689C492.157 439.068 491.073 439.257 489.854 439.257C487.907 439.257 486.371 438.858 485.247 438.059C484.128 437.254 483.489 436.177 483.329 434.827L487.617 434.721C487.712 435.218 487.957 435.597 488.354 435.857C488.75 436.118 489.256 436.248 489.872 436.248C490.428 436.248 490.881 436.144 491.23 435.937C491.579 435.73 491.757 435.455 491.763 435.112C491.757 434.804 491.621 434.558 491.355 434.375C491.088 434.185 490.671 434.037 490.103 433.931L487.724 433.478C486.356 433.229 485.338 432.771 484.67 432.102C484.001 431.427 483.669 430.569 483.675 429.527C483.669 428.616 483.912 427.838 484.403 427.192C484.894 426.541 485.593 426.044 486.498 425.701C487.404 425.358 488.472 425.186 489.703 425.186C491.55 425.186 493.006 425.574 494.071 426.349C495.137 427.118 495.725 428.178 495.838 429.527ZM506.01 425.364V428.56H497.407V425.364H506.01ZM499.209 422.097H503.551V434.712C503.551 434.978 503.592 435.194 503.675 435.36C503.764 435.52 503.891 435.635 504.057 435.706C504.222 435.771 504.421 435.804 504.651 435.804C504.817 435.804 504.992 435.789 505.175 435.76C505.365 435.724 505.507 435.694 505.601 435.671L506.258 438.805C506.051 438.864 505.758 438.938 505.379 439.027C505.006 439.115 504.56 439.172 504.039 439.195C503.021 439.243 502.148 439.124 501.42 438.84C500.698 438.55 500.144 438.1 499.76 437.491C499.381 436.881 499.197 436.115 499.209 435.191V422.097ZM514.453 439.257C513.026 439.257 511.795 438.976 510.759 438.414C509.729 437.846 508.936 437.038 508.38 435.99C507.83 434.937 507.554 433.685 507.554 432.235C507.554 430.826 507.833 429.595 508.389 428.542C508.945 427.482 509.729 426.66 510.742 426.074C511.754 425.482 512.946 425.186 514.319 425.186C515.29 425.186 516.178 425.337 516.983 425.639C517.788 425.941 518.483 426.388 519.069 426.979C519.655 427.571 520.111 428.302 520.436 429.172C520.762 430.036 520.924 431.028 520.924 432.146V433.229H509.073V430.708H516.885C516.879 430.246 516.77 429.835 516.557 429.474C516.343 429.113 516.051 428.832 515.678 428.631C515.311 428.424 514.888 428.32 514.408 428.32C513.923 428.32 513.488 428.429 513.103 428.648C512.718 428.862 512.414 429.154 512.189 429.527C511.964 429.894 511.845 430.312 511.834 430.779V433.345C511.834 433.901 511.943 434.389 512.162 434.81C512.381 435.224 512.692 435.547 513.094 435.777C513.497 436.008 513.976 436.124 514.532 436.124C514.917 436.124 515.266 436.07 515.58 435.964C515.894 435.857 516.163 435.7 516.388 435.493C516.613 435.286 516.781 435.032 516.894 434.73L520.88 434.845C520.714 435.739 520.35 436.517 519.788 437.18C519.232 437.837 518.501 438.349 517.595 438.716C516.69 439.077 515.642 439.257 514.453 439.257ZM523.142 439V425.364H527.359V427.849H527.501C527.749 426.95 528.155 426.281 528.717 425.843C529.279 425.399 529.933 425.177 530.679 425.177C530.88 425.177 531.087 425.192 531.3 425.222C531.513 425.245 531.712 425.284 531.895 425.337V429.11C531.688 429.039 531.416 428.983 531.078 428.941C530.747 428.9 530.451 428.879 530.191 428.879C529.676 428.879 529.211 428.995 528.797 429.225C528.388 429.45 528.066 429.767 527.829 430.175C527.598 430.578 527.483 431.051 527.483 431.596V439H523.142ZM542.879 439.231C542.009 439.231 541.237 439.086 540.562 438.796C539.893 438.5 539.364 438.056 538.973 437.464C538.588 436.866 538.396 436.118 538.396 435.218C538.396 434.46 538.529 433.821 538.796 433.3C539.062 432.78 539.429 432.356 539.896 432.031C540.364 431.705 540.903 431.46 541.512 431.294C542.122 431.122 542.773 431.007 543.465 430.948C544.241 430.877 544.865 430.803 545.339 430.726C545.812 430.643 546.155 430.528 546.368 430.38C546.587 430.226 546.697 430.01 546.697 429.732V429.687C546.697 429.231 546.54 428.879 546.226 428.631C545.913 428.382 545.489 428.258 544.957 428.258C544.383 428.258 543.921 428.382 543.572 428.631C543.223 428.879 543.001 429.223 542.906 429.661L538.902 429.518C539.02 428.69 539.325 427.95 539.816 427.299C540.314 426.642 540.994 426.127 541.858 425.754C542.728 425.375 543.773 425.186 544.992 425.186C545.862 425.186 546.664 425.29 547.398 425.497C548.132 425.698 548.771 425.994 549.316 426.385C549.86 426.769 550.281 427.243 550.576 427.805C550.878 428.367 551.029 429.009 551.029 429.732V439H546.945V437.1H546.839C546.596 437.562 546.285 437.952 545.907 438.272C545.534 438.592 545.093 438.831 544.584 438.991C544.081 439.151 543.513 439.231 542.879 439.231ZM544.22 436.39C544.687 436.39 545.108 436.295 545.481 436.106C545.859 435.916 546.161 435.656 546.386 435.325C546.611 434.987 546.723 434.597 546.723 434.153V432.857C546.599 432.922 546.448 432.981 546.271 433.034C546.099 433.087 545.91 433.138 545.703 433.185C545.495 433.232 545.282 433.274 545.063 433.309C544.844 433.345 544.634 433.377 544.433 433.407C544.025 433.472 543.675 433.573 543.385 433.709C543.101 433.845 542.882 434.022 542.728 434.241C542.58 434.455 542.506 434.709 542.506 435.005C542.506 435.455 542.666 435.798 542.986 436.035C543.311 436.272 543.723 436.39 544.22 436.39ZM566.423 425.364L561.745 439H556.773L552.103 425.364H556.676L559.188 434.756H559.33L561.851 425.364H566.423ZM571.566 439.231C570.696 439.231 569.923 439.086 569.249 438.796C568.58 438.5 568.05 438.056 567.66 437.464C567.275 436.866 567.083 436.118 567.083 435.218C567.083 434.46 567.216 433.821 567.482 433.3C567.748 432.78 568.115 432.356 568.583 432.031C569.05 431.705 569.589 431.46 570.199 431.294C570.808 431.122 571.459 431.007 572.152 430.948C572.927 430.877 573.552 430.803 574.025 430.726C574.499 430.643 574.842 430.528 575.055 430.38C575.274 430.226 575.383 430.01 575.383 429.732V429.687C575.383 429.231 575.227 428.879 574.913 428.631C574.599 428.382 574.176 428.258 573.643 428.258C573.069 428.258 572.608 428.382 572.258 428.631C571.909 428.879 571.687 429.223 571.593 429.661L567.589 429.518C567.707 428.69 568.012 427.95 568.503 427.299C569 426.642 569.681 426.127 570.545 425.754C571.415 425.375 572.46 425.186 573.679 425.186C574.549 425.186 575.351 425.29 576.085 425.497C576.819 425.698 577.458 425.994 578.002 426.385C578.547 426.769 578.967 427.243 579.263 427.805C579.565 428.367 579.716 429.009 579.716 429.732V439H575.632V437.1H575.525C575.283 437.562 574.972 437.952 574.593 438.272C574.22 438.592 573.779 438.831 573.27 438.991C572.767 439.151 572.199 439.231 571.566 439.231ZM572.906 436.39C573.374 436.39 573.794 436.295 574.167 436.106C574.546 435.916 574.848 435.656 575.073 435.325C575.298 434.987 575.41 434.597 575.41 434.153V432.857C575.286 432.922 575.135 432.981 574.957 433.034C574.786 433.087 574.596 433.138 574.389 433.185C574.182 433.232 573.969 433.274 573.75 433.309C573.531 433.345 573.321 433.377 573.119 433.407C572.711 433.472 572.362 433.573 572.072 433.709C571.788 433.845 571.569 434.022 571.415 434.241C571.267 434.455 571.193 434.709 571.193 435.005C571.193 435.455 571.353 435.798 571.672 436.035C571.998 436.272 572.409 436.39 572.906 436.39ZM582.37 439V425.364H586.711V439H582.37ZM584.545 423.775C583.936 423.775 583.412 423.573 582.974 423.171C582.536 422.762 582.317 422.271 582.317 421.697C582.317 421.129 582.536 420.644 582.974 420.241C583.412 419.833 583.936 419.629 584.545 419.629C585.161 419.629 585.685 419.833 586.117 420.241C586.555 420.644 586.774 421.129 586.774 421.697C586.774 422.271 586.555 422.762 586.117 423.171C585.685 423.573 585.161 423.775 584.545 423.775ZM593.816 420.818V439H589.475V420.818H593.816ZM600.423 439.231C599.553 439.231 598.781 439.086 598.106 438.796C597.437 438.5 596.908 438.056 596.517 437.464C596.132 436.866 595.94 436.118 595.94 435.218C595.94 434.46 596.073 433.821 596.339 433.3C596.606 432.78 596.973 432.356 597.44 432.031C597.908 431.705 598.446 431.46 599.056 431.294C599.666 431.122 600.317 431.007 601.009 430.948C601.785 430.877 602.409 430.803 602.882 430.726C603.356 430.643 603.699 430.528 603.912 430.38C604.131 430.226 604.241 430.01 604.241 429.732V429.687C604.241 429.231 604.084 428.879 603.77 428.631C603.457 428.382 603.033 428.258 602.501 428.258C601.927 428.258 601.465 428.382 601.116 428.631C600.767 428.879 600.545 429.223 600.45 429.661L596.446 429.518C596.564 428.69 596.869 427.95 597.36 427.299C597.858 426.642 598.538 426.127 599.402 425.754C600.272 425.375 601.317 425.186 602.536 425.186C603.406 425.186 604.208 425.29 604.942 425.497C605.676 425.698 606.315 425.994 606.86 426.385C607.404 426.769 607.824 427.243 608.12 427.805C608.422 428.367 608.573 429.009 608.573 429.732V439H604.489V437.1H604.383C604.14 437.562 603.829 437.952 603.451 438.272C603.078 438.592 602.637 438.831 602.128 438.991C601.625 439.151 601.057 439.231 600.423 439.231ZM601.764 436.39C602.231 436.39 602.652 436.295 603.025 436.106C603.403 435.916 603.705 435.656 603.93 435.325C604.155 434.987 604.267 434.597 604.267 434.153V432.857C604.143 432.922 603.992 432.981 603.815 433.034C603.643 433.087 603.454 433.138 603.246 433.185C603.039 433.232 602.826 433.274 602.607 433.309C602.388 433.345 602.178 433.377 601.977 433.407C601.569 433.472 601.219 433.573 600.929 433.709C600.645 433.845 600.426 434.022 600.272 434.241C600.124 434.455 600.05 434.709 600.05 435.005C600.05 435.455 600.21 435.798 600.53 436.035C600.855 436.272 601.267 436.39 601.764 436.39ZM611.228 439V420.818H615.569V427.699H615.658C615.835 427.284 616.087 426.885 616.412 426.5C616.744 426.115 617.164 425.802 617.673 425.559C618.188 425.31 618.803 425.186 619.52 425.186C620.467 425.186 621.351 425.435 622.174 425.932C623.003 426.429 623.671 427.195 624.18 428.231C624.689 429.267 624.944 430.587 624.944 432.191C624.944 433.735 624.698 435.029 624.207 436.07C623.722 437.112 623.065 437.893 622.236 438.414C621.413 438.935 620.499 439.195 619.493 439.195C618.806 439.195 618.212 439.083 617.708 438.858C617.205 438.633 616.782 438.337 616.439 437.97C616.102 437.603 615.841 437.21 615.658 436.789H615.525V439H611.228ZM615.48 432.182C615.48 432.916 615.578 433.555 615.773 434.099C615.974 434.644 616.261 435.067 616.634 435.369C617.013 435.665 617.466 435.813 617.993 435.813C618.525 435.813 618.978 435.665 619.351 435.369C619.724 435.067 620.005 434.644 620.194 434.099C620.39 433.555 620.487 432.916 620.487 432.182C620.487 431.448 620.39 430.812 620.194 430.273C620.005 429.734 619.724 429.317 619.351 429.021C618.984 428.725 618.531 428.577 617.993 428.577C617.46 428.577 617.007 428.722 616.634 429.012C616.261 429.302 615.974 429.717 615.773 430.255C615.578 430.794 615.48 431.436 615.48 432.182ZM631.56 420.818V439H627.219V420.818H631.56ZM640.698 439.257C639.271 439.257 638.04 438.976 637.004 438.414C635.975 437.846 635.182 437.038 634.625 435.99C634.075 434.937 633.8 433.685 633.8 432.235C633.8 430.826 634.078 429.595 634.634 428.542C635.19 427.482 635.975 426.66 636.987 426.074C637.999 425.482 639.191 425.186 640.564 425.186C641.535 425.186 642.423 425.337 643.228 425.639C644.033 425.941 644.728 426.388 645.314 426.979C645.9 427.571 646.356 428.302 646.681 429.172C647.007 430.036 647.17 431.028 647.17 432.146V433.229H635.318V430.708H643.13C643.124 430.246 643.015 429.835 642.802 429.474C642.589 429.113 642.296 428.832 641.923 428.631C641.556 428.424 641.133 428.32 640.653 428.32C640.168 428.32 639.733 428.429 639.348 428.648C638.963 428.862 638.659 429.154 638.434 429.527C638.209 429.894 638.09 430.312 638.079 430.779V433.345C638.079 433.901 638.188 434.389 638.407 434.81C638.626 435.224 638.937 435.547 639.339 435.777C639.742 436.008 640.221 436.124 640.778 436.124C641.162 436.124 641.511 436.07 641.825 435.964C642.139 435.857 642.408 435.7 642.633 435.493C642.858 435.286 643.027 435.032 643.139 434.73L647.125 434.845C646.959 435.739 646.595 436.517 646.033 437.18C645.477 437.837 644.746 438.349 643.84 438.716C642.935 439.077 641.887 439.257 640.698 439.257Z" fill="#D1D5DC"/>
<path d="M372.303 325.364H385.364L396.443 352.381H396.955L408.034 325.364H421.095V369H410.825V342.196H410.463L399.98 368.723H393.418L382.935 342.047H382.572V369H372.303V325.364ZM442.951 369.618C439.513 369.618 436.559 368.915 434.087 367.509C431.63 366.088 429.733 364.114 428.398 361.585C427.077 359.043 426.417 356.095 426.417 352.743C426.417 349.376 427.077 346.429 428.398 343.901C429.733 341.358 431.63 339.384 434.087 337.977C436.559 336.557 439.513 335.847 442.951 335.847C446.388 335.847 449.336 336.557 451.793 337.977C454.265 339.384 456.161 341.358 457.482 343.901C458.817 346.429 459.485 349.376 459.485 352.743C459.485 356.095 458.817 359.043 457.482 361.585C456.161 364.114 454.265 366.088 451.793 367.509C449.336 368.915 446.388 369.618 442.951 369.618ZM443.015 361.756C444.265 361.756 445.323 361.372 446.189 360.605C447.056 359.838 447.716 358.773 448.171 357.409C448.64 356.045 448.874 354.469 448.874 352.679C448.874 350.861 448.64 349.27 448.171 347.906C447.716 346.543 447.056 345.477 446.189 344.71C445.323 343.943 444.265 343.56 443.015 343.56C441.722 343.56 440.628 343.943 439.733 344.71C438.853 345.477 438.178 346.543 437.709 347.906C437.255 349.27 437.027 350.861 437.027 352.679C437.027 354.469 437.255 356.045 437.709 357.409C438.178 358.773 438.853 359.838 439.733 360.605C440.628 361.372 441.722 361.756 443.015 361.756ZM495.515 336.273L484.286 369H472.354L461.147 336.273H472.12L478.15 358.815H478.49L484.542 336.273H495.515ZM499.51 369V336.273H509.929V369H499.51ZM504.73 332.459C503.267 332.459 502.01 331.976 500.958 331.01C499.907 330.03 499.382 328.851 499.382 327.473C499.382 326.109 499.907 324.945 500.958 323.979C502.01 322.999 503.267 322.509 504.73 322.509C506.207 322.509 507.464 322.999 508.501 323.979C509.552 324.945 510.078 326.109 510.078 327.473C510.078 328.851 509.552 330.03 508.501 331.01C507.464 331.976 506.207 332.459 504.73 332.459ZM531.859 369.618C528.435 369.618 525.481 368.943 522.995 367.594C520.523 366.23 518.62 364.291 517.285 361.777C515.964 359.249 515.303 356.244 515.303 352.764C515.303 349.384 515.971 346.429 517.306 343.901C518.641 341.358 520.523 339.384 522.952 337.977C525.381 336.557 528.244 335.847 531.539 335.847C533.869 335.847 535.999 336.209 537.931 336.933C539.863 337.658 541.532 338.73 542.938 340.151C544.344 341.571 545.438 343.325 546.219 345.413C547.001 347.487 547.391 349.866 547.391 352.551V355.151H518.947V349.099H537.697C537.683 347.991 537.42 347.004 536.908 346.138C536.397 345.271 535.694 344.597 534.799 344.114C533.918 343.616 532.903 343.368 531.752 343.368C530.587 343.368 529.543 343.631 528.62 344.156C527.697 344.668 526.965 345.371 526.425 346.266C525.886 347.146 525.602 348.148 525.573 349.27V355.428C525.573 356.763 525.836 357.935 526.362 358.943C526.887 359.937 527.633 360.712 528.599 361.266C529.565 361.82 530.715 362.097 532.05 362.097C532.974 362.097 533.812 361.969 534.565 361.713C535.317 361.457 535.964 361.081 536.504 360.584C537.043 360.087 537.448 359.476 537.718 358.751L547.285 359.028C546.887 361.173 546.013 363.041 544.664 364.632C543.329 366.209 541.575 367.437 539.401 368.318C537.228 369.185 534.714 369.618 531.859 369.618ZM559.574 325.364L569.332 357.324H569.694L579.453 325.364H591.257L576.534 369H562.493L547.77 325.364H559.574ZM601.372 369.554C599.284 369.554 597.43 369.206 595.811 368.51C594.206 367.8 592.935 366.734 591.997 365.314C591.074 363.879 590.612 362.082 590.612 359.923C590.612 358.105 590.932 356.571 591.571 355.321C592.21 354.071 593.091 353.055 594.213 352.274C595.335 351.493 596.628 350.903 598.091 350.506C599.554 350.094 601.116 349.817 602.778 349.675C604.639 349.504 606.138 349.327 607.274 349.142C608.411 348.943 609.234 348.666 609.746 348.311C610.271 347.942 610.534 347.423 610.534 346.756V346.649C610.534 345.555 610.158 344.71 609.405 344.114C608.652 343.517 607.636 343.219 606.358 343.219C604.98 343.219 603.872 343.517 603.034 344.114C602.196 344.71 601.663 345.534 601.436 346.585L591.827 346.244C592.111 344.256 592.842 342.48 594.021 340.918C595.214 339.341 596.848 338.105 598.922 337.21C601.01 336.301 603.517 335.847 606.443 335.847C608.531 335.847 610.456 336.095 612.217 336.592C613.979 337.075 615.513 337.786 616.82 338.723C618.126 339.646 619.135 340.783 619.845 342.132C620.57 343.482 620.932 345.023 620.932 346.756V369H611.131V364.44H610.875C610.293 365.548 609.547 366.486 608.638 367.253C607.743 368.02 606.685 368.595 605.463 368.979C604.256 369.362 602.892 369.554 601.372 369.554ZM604.589 362.736C605.712 362.736 606.72 362.509 607.615 362.054C608.524 361.599 609.249 360.974 609.788 360.179C610.328 359.369 610.598 358.432 610.598 357.366V354.256C610.3 354.412 609.938 354.554 609.511 354.682C609.099 354.81 608.645 354.93 608.148 355.044C607.651 355.158 607.139 355.257 606.614 355.342C606.088 355.428 605.584 355.506 605.101 355.577C604.121 355.733 603.283 355.974 602.587 356.301C601.905 356.628 601.379 357.054 601.01 357.58C600.655 358.091 600.477 358.702 600.477 359.412C600.477 360.491 600.861 361.315 601.628 361.884C602.409 362.452 603.396 362.736 604.589 362.736ZM648.418 354.874V336.273H658.815V369H648.886V362.906H648.545C647.821 364.909 646.585 366.5 644.838 367.679C643.105 368.844 641.01 369.426 638.553 369.426C636.322 369.426 634.362 368.915 632.672 367.892C630.982 366.869 629.668 365.442 628.73 363.609C627.793 361.763 627.317 359.604 627.303 357.132V336.273H637.722V355.087C637.736 356.862 638.205 358.261 639.128 359.284C640.051 360.307 641.308 360.818 642.899 360.818C643.936 360.818 644.866 360.591 645.69 360.136C646.528 359.668 647.189 358.993 647.672 358.112C648.169 357.217 648.418 356.138 648.418 354.874ZM675.866 325.364V369H665.447V325.364H675.866ZM700.971 336.273V343.943H680.325V336.273H700.971ZM684.65 328.432H695.069V358.709C695.069 359.348 695.168 359.866 695.367 360.264C695.58 360.648 695.886 360.925 696.283 361.095C696.681 361.251 697.157 361.33 697.711 361.33C698.109 361.33 698.528 361.294 698.968 361.223C699.423 361.138 699.763 361.067 699.991 361.01L701.567 368.531C701.07 368.673 700.367 368.851 699.458 369.064C698.563 369.277 697.491 369.412 696.241 369.469C693.798 369.582 691.702 369.298 689.955 368.616C688.222 367.92 686.894 366.841 685.971 365.378C685.062 363.915 684.621 362.075 684.65 359.859V328.432Z" fill="white"/>
</svg>
